<svg width="375" height="86" viewBox="0 0 375 86" fill="none" xmlns="http://www.w3.org/2000/svg">
<path d="M32.0508 60.4004V65H9.46289V60.4004H32.0508ZM10.6055 22.3438V65H4.95117V22.3438H10.6055ZM29.0625 40.6836V45.2832H9.46289V40.6836H29.0625ZM31.7578 22.3438V26.9727H9.46289V22.3438H31.7578ZM63.457 22.3438H69.082V51.2012C69.082 54.4043 68.3691 57.0703 66.9434 59.1992C65.5176 61.3281 63.623 62.9297 61.2598 64.0039C58.916 65.0586 56.3672 65.5859 53.6133 65.5859C50.7227 65.5859 48.1055 65.0586 45.7617 64.0039C43.4375 62.9297 41.5918 61.3281 40.2246 59.1992C38.877 57.0703 38.2031 54.4043 38.2031 51.2012V22.3438H43.7988V51.2012C43.7988 53.4277 44.209 55.2637 45.0293 56.709C45.8496 58.1543 46.9922 59.2285 48.457 59.9316C49.9414 60.6348 51.6602 60.9863 53.6133 60.9863C55.5859 60.9863 57.3047 60.6348 58.7695 59.9316C60.2539 59.2285 61.4062 58.1543 62.2266 56.709C63.0469 55.2637 63.457 53.4277 63.457 51.2012V22.3438ZM77.959 22.3438H92.0801C95.2832 22.3438 97.9883 22.832 100.195 23.8086C102.422 24.7852 104.111 26.2305 105.264 28.1445C106.436 30.0391 107.021 32.373 107.021 35.1465C107.021 37.0996 106.621 38.8867 105.82 40.5078C105.039 42.1094 103.906 43.4766 102.422 44.6094C100.957 45.7227 99.1992 46.5527 97.1484 47.0996L95.5664 47.7148H82.2949L82.2363 43.1152H92.2559C94.2871 43.1152 95.9766 42.7637 97.3242 42.0605C98.6719 41.3379 99.6875 40.3711 100.371 39.1602C101.055 37.9492 101.396 36.6113 101.396 35.1465C101.396 33.5059 101.074 32.0703 100.43 30.8398C99.7852 29.6094 98.7695 28.6621 97.3828 27.998C96.0156 27.3145 94.248 26.9727 92.0801 26.9727H83.6133V65H77.959V22.3438ZM102.891 65L92.5195 45.6641L98.4082 45.6348L108.926 64.6484V65H102.891ZM171.973 48.2715H160.576V43.6719H171.973C174.18 43.6719 175.967 43.3203 177.334 42.6172C178.701 41.9141 179.697 40.9375 180.322 39.6875C180.967 38.4375 181.289 37.0117 181.289 35.4102C181.289 33.9453 180.967 32.5684 180.322 31.2793C179.697 29.9902 178.701 28.9551 177.334 28.1738C175.967 27.373 174.18 26.9727 171.973 26.9727H161.895V65H156.24V22.3438H171.973C175.195 22.3438 177.92 22.9004 180.146 24.0137C182.373 25.127 184.062 26.6699 185.215 28.6426C186.367 30.5957 186.943 32.832 186.943 35.3516C186.943 38.0859 186.367 40.4199 185.215 42.3535C184.062 44.2871 182.373 45.7617 180.146 46.7773C177.92 47.7734 175.195 48.2715 171.973 48.2715ZM226.934 42.3242V45.0195C226.934 48.2227 226.533 51.0938 225.732 53.6328C224.932 56.1719 223.779 58.3301 222.275 60.1074C220.771 61.8848 218.965 63.2422 216.855 64.1797C214.766 65.1172 212.422 65.5859 209.824 65.5859C207.305 65.5859 204.99 65.1172 202.881 64.1797C200.791 63.2422 198.975 61.8848 197.432 60.1074C195.908 58.3301 194.727 56.1719 193.887 53.6328C193.047 51.0938 192.627 48.2227 192.627 45.0195V42.3242C192.627 39.1211 193.037 36.2598 193.857 33.7402C194.697 31.2012 195.879 29.043 197.402 27.2656C198.926 25.4688 200.732 24.1016 202.822 23.1641C204.932 22.2266 207.246 21.7578 209.766 21.7578C212.363 21.7578 214.707 22.2266 216.797 23.1641C218.906 24.1016 220.713 25.4688 222.217 27.2656C223.74 29.043 224.902 31.2012 225.703 33.7402C226.523 36.2598 226.934 39.1211 226.934 42.3242ZM221.338 45.0195V42.2656C221.338 39.7266 221.074 37.4805 220.547 35.5273C220.039 33.5742 219.287 31.9336 218.291 30.6055C217.295 29.2773 216.074 28.2715 214.629 27.5879C213.203 26.9043 211.582 26.5625 209.766 26.5625C208.008 26.5625 206.416 26.9043 204.99 27.5879C203.584 28.2715 202.373 29.2773 201.357 30.6055C200.361 31.9336 199.59 33.5742 199.043 35.5273C198.496 37.4805 198.223 39.7266 198.223 42.2656V45.0195C198.223 47.5781 198.496 49.8438 199.043 51.8164C199.59 53.7695 200.371 55.4199 201.387 56.7676C202.422 58.0957 203.643 59.1016 205.049 59.7852C206.475 60.4688 208.066 60.8105 209.824 60.8105C211.66 60.8105 213.291 60.4688 214.717 59.7852C216.143 59.1016 217.344 58.0957 218.32 56.7676C219.316 55.4199 220.068 53.7695 220.576 51.8164C221.084 49.8438 221.338 47.5781 221.338 45.0195ZM261.27 60.4004V65H239.941V60.4004H261.27ZM241.055 22.3438V65H235.4V22.3438H241.055Z" fill="#044971"/>
<path d="M147.773 42.3242V45.0195C147.773 48.2227 147.373 51.0938 146.572 53.6328C145.771 56.1719 144.619 58.3301 143.115 60.1074C141.611 61.8848 139.805 63.2422 137.695 64.1797C135.605 65.1172 133.262 65.5859 130.664 65.5859C128.145 65.5859 125.83 65.1172 123.721 64.1797C121.631 63.2422 119.814 61.8848 118.271 60.1074C116.748 58.3301 115.566 56.1719 114.727 53.6328C113.887 51.0938 113.467 48.2227 113.467 45.0195V42.3242C113.467 39.1211 113.877 36.2598 114.697 33.7402C115.537 31.2012 116.719 29.043 118.242 27.2656C119.766 25.4688 121.572 24.1016 123.662 23.1641C125.771 22.2266 128.086 21.7578 130.605 21.7578C133.203 21.7578 135.547 22.2266 137.637 23.1641C139.746 24.1016 141.553 25.4688 143.057 27.2656C144.58 29.043 145.742 31.2012 146.543 33.7402C147.363 36.2598 147.773 39.1211 147.773 42.3242ZM142.178 45.0195V42.2656C142.178 39.7266 141.914 37.4805 141.387 35.5273C140.879 33.5742 140.127 31.9336 139.131 30.6055C138.135 29.2773 136.914 28.2715 135.469 27.5879C134.043 26.9043 132.422 26.5625 130.605 26.5625C128.848 26.5625 127.256 26.9043 125.83 27.5879C124.424 28.2715 123.213 29.2773 122.197 30.6055C121.201 31.9336 120.43 33.5742 119.883 35.5273C119.336 37.4805 119.062 39.7266 119.062 42.2656V45.0195C119.062 47.5781 119.336 49.8438 119.883 51.8164C120.43 53.7695 121.211 55.4199 122.227 56.7676C123.262 58.0957 124.482 59.1016 125.889 59.7852C127.314 60.4688 128.906 60.8105 130.664 60.8105C132.5 60.8105 134.131 60.4688 135.557 59.7852C136.982 59.1016 138.184 58.0957 139.16 56.7676C140.156 55.4199 140.908 53.7695 141.416 51.8164C141.924 49.8438 142.178 47.5781 142.178 45.0195Z" fill="#FF7313"/>
<path opacity="0.999" fill-rule="evenodd" clip-rule="evenodd" d="M289.28 22.2556C298.351 22.2276 307.422 22.2556 316.492 22.3396C316.67 22.4795 316.847 22.6196 317.024 22.7595C317.201 26.5681 317.166 30.3754 316.918 34.1814C306.359 33.9575 295.8 33.9575 285.24 34.1814C285.17 34.0694 285.099 33.9575 285.028 33.8455C286.197 30.2622 287.366 26.6788 288.536 23.0955C288.684 22.7454 288.932 22.4654 289.28 22.2556Z" fill="#221E1F"/>
<path opacity="0.999" fill-rule="evenodd" clip-rule="evenodd" d="M324.783 22.2556C333.784 22.2276 342.784 22.2556 351.784 22.3396C352.173 22.4236 352.421 22.6196 352.528 22.9275C353.719 26.6665 354.96 30.3897 356.248 34.0974C345.555 33.9584 334.854 33.9864 324.146 34.1814C323.898 30.4313 323.862 26.6801 324.039 22.9275C324.186 22.6168 324.434 22.3927 324.783 22.2556Z" fill="#221E1F"/>
<path opacity="0.999" fill-rule="evenodd" clip-rule="evenodd" d="M281.413 43.5877C293.036 43.5596 304.658 43.5877 316.28 43.6717C316.584 43.7498 316.832 43.8898 317.024 44.0916C317.201 48.5159 317.165 52.939 316.917 57.3611C303.232 57.1658 289.555 57.1379 275.886 57.2771C277.45 53.1763 278.974 49.0611 280.457 44.9314C280.614 44.4027 280.933 43.9547 281.413 43.5877Z" fill="#231E1F"/>
<path opacity="0.998" fill-rule="evenodd" clip-rule="evenodd" d="M324.784 43.5877C336.406 43.5596 348.028 43.5877 359.65 43.6717C359.969 43.8116 360.217 44.0076 360.394 44.2595C361.956 48.5794 363.55 52.8905 365.177 57.1931C351.529 57.138 337.852 57.1941 324.146 57.3611C323.898 52.9949 323.862 48.6277 324.039 44.2595C324.186 43.9488 324.434 43.7247 324.784 43.5877Z" fill="#231E1F"/>
<path opacity="0.976" fill-rule="evenodd" clip-rule="evenodd" d="M276.949 58.7049C290.059 58.6768 303.169 58.7049 316.279 58.7888C316.669 58.8728 316.917 59.0688 317.024 59.3767C317.165 60.8885 317.165 62.4002 317.024 63.9119C316.846 64.0518 316.669 64.1919 316.492 64.3318C302.956 64.4438 289.421 64.4438 275.886 64.3318C275.441 64.0206 275.228 63.6287 275.248 63.156C275.456 61.8912 275.704 60.6315 275.992 59.3767C276.289 59.113 276.608 58.889 276.949 58.7049Z" fill="#231E20"/>
<path opacity="0.976" fill-rule="evenodd" clip-rule="evenodd" d="M324.996 58.7049C338.107 58.6768 351.217 58.7049 364.327 58.7888C364.94 59.0557 365.259 59.4757 365.284 60.0486C365.606 61.3282 365.748 62.616 365.709 63.9119C365.532 64.0518 365.354 64.1919 365.177 64.3318C351.642 64.4438 338.106 64.4438 324.571 64.3318C324.394 64.1919 324.217 64.0518 324.039 63.9119C323.898 62.4002 323.898 60.8885 324.039 59.3767C324.305 59.0924 324.624 58.8683 324.996 58.7049Z" fill="#231E20"/>
</svg>
