<?xml version="1.0" standalone="no"?>
<!DOCTYPE svg PUBLIC "-//W3C//DTD SVG 20010904//EN"
 "http://www.w3.org/TR/2001/REC-SVG-20010904/DTD/svg10.dtd">
<svg version="1.0" xmlns="http://www.w3.org/2000/svg"
 width="872.000000pt" height="872.000000pt" viewBox="0 0 872.000000 872.000000"
 preserveAspectRatio="xMidYMid meet">
<metadata>
Created by potrace 1.14, written by Peter Selinger 2001-2017
</metadata>
<g transform="translate(0.000000,872.000000) scale(0.100000,-0.100000)"
fill="#000000" stroke="none">
<path d="M1842 6005 c-21 -15 -53 -65 -52 -82 0 -5 -8 -30 -17 -58 -10 -27
-18 -52 -18 -55 -1 -5 -138 -429 -177 -545 -25 -75 -27 -84 -28 -90 0 -3 -7
-22 -14 -43 -24 -66 -20 -67 186 -63 234 6 1904 6 2150 0 103 -2 190 0 194 4
12 12 15 77 18 499 l3 397 -26 23 -26 22 -1085 4 c-989 3 -1087 2 -1108 -13z"/>
<path d="M4665 5996 l-30 -26 1 -362 c2 -301 5 -432 13 -533 1 -7 55 -9 159
-6 86 2 662 4 1279 5 618 1 1123 4 1123 8 0 3 -23 73 -51 155 -28 81 -52 153
-53 158 -2 6 -6 17 -9 25 -9 22 -99 298 -137 420 -43 136 -54 156 -87 167 -16
5 -499 10 -1103 12 l-1075 3 -30 -26z"/>
<path d="M1208 4290 c-14 -14 -32 -41 -41 -60 -14 -30 -83 -215 -91 -245 -2
-5 -8 -21 -13 -35 -6 -14 -18 -45 -26 -70 -36 -105 -76 -209 -88 -231 -7 -13
-11 -25 -10 -27 1 -1 -7 -28 -19 -60 -21 -58 -28 -76 -32 -90 -1 -4 -23 -61
-49 -127 -27 -66 -46 -121 -44 -123 6 -7 253 -4 264 2 5 4 12 2 15 -3 3 -5 21
-6 40 -1 18 4 41 3 50 -2 9 -5 16 -5 16 -1 0 4 428 8 950 8 523 0 950 -4 950
-8 0 -5 5 -5 11 -2 17 11 59 13 65 3 3 -4 10 -5 16 -2 6 4 49 6 97 5 47 -1
247 -4 444 -6 l357 -4 1 22 c1 12 3 58 6 102 8 123 8 897 1 926 -4 14 -18 30
-30 36 -26 11 -359 14 -1839 16 l-976 2 -25 -25z"/>
<path d="M4699 4310 c-12 -3 -32 -18 -43 -33 -21 -28 -21 -37 -20 -445 1 -229
4 -455 7 -502 3 -47 6 -93 6 -102 1 -16 33 -17 474 -12 259 3 995 7 1634 8
639 1 1164 4 1166 6 5 5 -17 64 -88 250 -18 47 -44 117 -58 155 -15 39 -32 84
-38 100 -7 17 -13 32 -13 35 -1 6 -33 95 -51 140 -7 19 -32 87 -55 150 -73
201 -79 215 -108 232 -23 13 -93 16 -497 18 -992 5 -2295 5 -2316 0z"/>
<path d="M879 3098 c-10 -4 -19 -5 -19 -2 0 5 -14 -6 -45 -34 -15 -13 -30 -60
-41 -126 -3 -21 -8 -47 -10 -57 -2 -11 -6 -27 -8 -37 -21 -96 -15 -151 21
-177 9 -7 117 -11 281 -12 147 -1 312 -3 367 -4 55 0 105 0 110 1 6 1 12 2 15
1 18 -7 310 -4 310 2 0 5 5 5 11 1 15 -9 129 -11 129 -2 0 4 7 5 16 1 24 -9
764 -9 764 0 0 5 4 5 10 2 10 -6 393 -7 956 -2 280 2 302 3 319 21 17 17 20
36 20 182 1 90 -2 164 -6 164 -4 0 -5 8 -2 19 3 12 -4 25 -20 38 -23 17 -44
19 -296 21 -150 1 -276 4 -281 7 -5 3 -11 2 -13 -2 -3 -5 -42 -6 -86 -3 -45 3
-81 1 -81 -4 0 -5 -6 -3 -13 3 -8 6 -16 9 -19 6 -5 -5 -42 -6 -209 -4 -64 1
-122 -1 -128 -5 -6 -4 -11 -4 -11 1 0 10 -2014 11 -2041 1z"/>
<path d="M4719 3098 c-10 -4 -19 -5 -19 -2 0 6 -25 -14 -48 -39 -14 -15 -17
-43 -18 -184 0 -158 1 -167 22 -192 l22 -27 409 -3 c564 -3 1835 -3 2385 0
534 4 501 -3 498 100 -1 63 -7 144 -10 144 -1 0 -3 11 -6 25 -13 77 -30 127
-51 150 l-23 25 -268 2 c-147 1 -296 2 -332 2 -36 1 -83 1 -105 2 -185 5
-2441 2 -2456 -3z"/>
</g>
</svg>
