<svg width="70" height="70" viewBox="0 0 70 70" fill="none" xmlns="http://www.w3.org/2000/svg">
<path d="M19.6692 36.1936H13.1965C12.621 36.1936 12.0947 35.8724 11.8311 35.3614C11.5676 34.8505 11.6114 34.235 11.9441 33.7663L17.8482 25.4665C18.1839 24.9955 18.2308 24.4 17.9742 23.8737C17.8589 23.6363 17.5062 23.0815 16.7356 23.0462L16.6472 23.0446C15.5923 23.0446 14.734 23.9029 14.734 24.9578C14.734 25.8061 14.0455 26.4946 13.1973 26.4946C12.349 26.4946 11.6606 25.8061 11.6606 24.9578C11.6606 22.2079 13.8973 19.9712 16.6472 19.9712C16.7225 19.9712 16.7963 19.9727 16.8708 19.9758C18.5512 20.0519 19.995 21.0054 20.7372 22.5268C21.4833 24.0573 21.3365 25.866 20.353 27.2483L16.1754 33.1209H19.6692C20.5174 33.1209 21.2059 33.8093 21.2059 34.6576C21.2059 35.5059 20.5182 36.1936 19.6692 36.1936Z" fill="black"/>
<path d="M31.3697 36.1934C30.5215 36.1934 29.833 35.5049 29.833 34.6567V33.7492H23.6892C23.113 33.7492 22.5851 33.4273 22.3223 32.9148C22.0595 32.4023 22.1049 31.7853 22.4406 31.3166L30.1212 20.611C30.5092 20.0686 31.203 19.8388 31.84 20.044C32.4754 20.2484 32.9065 20.8392 32.9065 21.507V30.6758H33.8285C34.6768 30.6758 35.3652 31.3642 35.3652 32.2125C35.3652 33.0608 34.6768 33.7492 33.8285 33.7492H32.9065V34.6567C32.9065 35.5049 32.2188 36.1934 31.3697 36.1934ZM26.6835 30.6758H29.8338V26.2854L26.6835 30.6758Z" fill="black"/>
<path d="M45.576 49.9517C45.3117 49.9517 45.0443 49.8833 44.7999 49.7411C44.0677 49.3108 43.8226 48.3696 44.2513 47.6381L50.6072 36.802H45.5768C44.7285 36.802 44.04 36.1143 44.04 35.2652C44.04 34.417 44.7285 33.7285 45.5768 33.7285H53.2903C53.8412 33.7285 54.3499 34.0236 54.6234 34.5015C54.897 34.9794 54.8947 35.568 54.6157 36.0428L46.9014 49.1917C46.6171 49.6797 46.1038 49.9517 45.576 49.9517Z" fill="black"/>
<path d="M31.388 49.9517C31.1321 49.9517 30.8724 49.8879 30.6334 49.7527C29.895 49.3355 29.6338 48.3973 30.0518 47.6589L45.2522 20.7509C45.6695 20.0133 46.6076 19.7513 47.346 20.1693C48.0852 20.5865 48.3457 21.5239 47.9284 22.2631L32.7272 49.1703C32.4452 49.6712 31.9243 49.9517 31.388 49.9517Z" fill="black"/>
<path d="M32.8595 67.4357C14.9529 67.4357 0.384766 52.8677 0.384766 34.961C0.384766 17.0544 14.9529 2.48633 32.8595 2.48633C50.7661 2.48633 65.3342 17.0544 65.3342 34.961C65.3342 35.8093 64.6457 36.4978 63.7975 36.4978C62.9492 36.4978 62.2607 35.8093 62.2607 34.961C62.2607 18.7487 49.0711 5.55977 32.8595 5.55977C16.6479 5.55977 3.4582 18.7487 3.4582 34.961C3.4582 51.1734 16.6479 64.3623 32.8595 64.3623C43.2677 64.3623 53.0012 58.774 58.2607 49.7773C58.6894 49.0451 59.6291 48.7984 60.3629 49.2264C61.0951 49.6551 61.3418 50.5956 60.9138 51.3286C55.1058 61.2635 44.3564 67.4357 32.8595 67.4357Z" fill="black"/>
<path d="M63.7976 36.4978C63.4042 36.4978 63.0115 36.348 62.7111 36.0476L58.5082 31.8447C57.9081 31.2446 57.9081 30.2718 58.5082 29.6717C59.1083 29.0717 60.081 29.0717 60.6811 29.6717L63.7976 32.7874L66.914 29.6717C67.5141 29.0717 68.4869 29.0717 69.0869 29.6717C69.687 30.2718 69.687 31.2446 69.0869 31.8447L64.884 36.0476C64.5844 36.348 64.191 36.4978 63.7976 36.4978Z" fill="black"/>
</svg>
