<svg width="45" height="46" viewBox="0 0 45 46" fill="none" xmlns="http://www.w3.org/2000/svg">
<g clip-path="url(#clip0_455_80)">
<path d="M22.4999 0.443359C34.9255 0.443359 45 10.5177 45 22.9434C45 35.3691 34.9256 45.4434 22.5001 45.4434C10.0745 45.4434 0 35.369 0 22.9434C0 10.5179 10.073 0.443359 22.4999 0.443359Z" fill="#044971"/>
<path d="M30.4243 10H14.8924C12.1938 10 10 12.1952 10 14.8924V30.4259C10 33.1244 12.1952 35.3182 14.8924 35.3182H30.4259C33.1244 35.3182 35.3182 33.1231 35.3182 30.4259V14.8924C35.3181 12.1952 33.1229 10 30.4243 10ZM31.9656 12.8308L32.5197 12.8294V17.0313L28.2869 17.0454L28.2729 12.8435L31.9656 12.8308ZM22.6591 18.4234C26.1705 18.4234 26.8947 21.7196 26.8947 22.6603C26.8947 24.9933 24.9935 26.8945 22.6591 26.8945C20.3234 26.8945 18.4235 24.9933 18.4235 22.6603C18.422 21.7196 19.1477 18.4234 22.6591 18.4234ZM32.5436 30.1192C32.5436 31.4566 31.4566 32.545 30.1165 32.545H15.1539C13.8151 32.545 12.7267 31.458 12.7267 30.1192V19.841H16.2423C15.916 20.6439 15.7318 21.7408 15.7318 22.6605C15.7318 26.4771 18.8368 29.5835 22.6548 29.5835C26.4728 29.5835 29.5763 26.4771 29.5763 22.6605C29.5763 21.7408 29.392 20.6439 29.0671 19.841H32.5405V30.1192H32.5436Z" fill="white"/>
</g>
<defs>
<clipPath id="clip0_455_80">
<rect width="45" height="45" fill="white" transform="translate(0 0.443359)"/>
</clipPath>
</defs>
</svg>
