<svg width="393" height="86" viewBox="0 0 393 86" fill="none" xmlns="http://www.w3.org/2000/svg">
<path d="M32.2559 54.1699V60H9.60938V54.1699H32.2559ZM11.6895 17.3438V60H4.33594V17.3438H11.6895ZM29.2969 35.1562V40.8984H9.60938V35.1562H29.2969ZM32.1094 17.3438V23.2031H9.60938V17.3438H32.1094ZM62.1973 17.3438H69.5215V45.8496C69.5215 49.0918 68.8184 51.8066 67.4121 53.9941C66.0059 56.1816 64.0918 57.832 61.6699 58.9453C59.2676 60.0391 56.582 60.5859 53.6133 60.5859C50.5469 60.5859 47.8125 60.0391 45.4102 58.9453C43.0078 57.832 41.1133 56.1816 39.7266 53.9941C38.3594 51.8066 37.6758 49.0918 37.6758 45.8496V17.3438H45V45.8496C45 47.9004 45.3516 49.5898 46.0547 50.918C46.7578 52.2266 47.7539 53.1934 49.043 53.8184C50.332 54.4434 51.8555 54.7559 53.6133 54.7559C55.3711 54.7559 56.8848 54.4434 58.1543 53.8184C59.4434 53.1934 60.4395 52.2266 61.1426 50.918C61.8457 49.5898 62.1973 47.9004 62.1973 45.8496V17.3438ZM77.5195 17.3438H92.6074C95.8496 17.3438 98.6133 17.832 100.898 18.8086C103.184 19.7852 104.932 21.2305 106.143 23.1445C107.373 25.0391 107.988 27.3828 107.988 30.1758C107.988 32.3047 107.598 34.1797 106.816 35.8008C106.035 37.4219 104.932 38.7891 103.506 39.9023C102.08 40.9961 100.381 41.8457 98.4082 42.4512L96.1816 43.5352H82.6172L82.5586 37.7051H92.7246C94.4824 37.7051 95.9473 37.3926 97.1191 36.7676C98.291 36.1426 99.1699 35.293 99.7559 34.2188C100.361 33.125 100.664 31.8945 100.664 30.5273C100.664 29.043 100.371 27.7539 99.7852 26.6602C99.2188 25.5469 98.3398 24.6973 97.1484 24.1113C95.957 23.5059 94.4434 23.2031 92.6074 23.2031H84.873V60H77.5195V17.3438ZM101.865 60L91.8457 40.8398L99.5508 40.8105L109.717 59.6191V60H101.865ZM172.881 44.0918H161.777V38.2617H172.881C174.814 38.2617 176.377 37.9492 177.568 37.3242C178.76 36.6992 179.629 35.8398 180.176 34.7461C180.742 33.6328 181.025 32.3633 181.025 30.9375C181.025 29.5898 180.742 28.3301 180.176 27.1582C179.629 25.9668 178.76 25.0098 177.568 24.2871C176.377 23.5645 174.814 23.2031 172.881 23.2031H164.033V60H156.68V17.3438H172.881C176.182 17.3438 178.984 17.9297 181.289 19.1016C183.613 20.2539 185.381 21.8555 186.592 23.9062C187.803 25.9375 188.408 28.2617 188.408 30.8789C188.408 33.6328 187.803 35.9961 186.592 37.9688C185.381 39.9414 183.613 41.4551 181.289 42.5098C178.984 43.5645 176.182 44.0918 172.881 44.0918ZM229.014 37.5V39.8438C229.014 43.0664 228.594 45.957 227.754 48.5156C226.914 51.0742 225.713 53.252 224.15 55.0488C222.607 56.8457 220.752 58.2227 218.584 59.1797C216.416 60.1172 214.014 60.5859 211.377 60.5859C208.76 60.5859 206.367 60.1172 204.199 59.1797C202.051 58.2227 200.186 56.8457 198.604 55.0488C197.021 53.252 195.791 51.0742 194.912 48.5156C194.053 45.957 193.623 43.0664 193.623 39.8438V37.5C193.623 34.2773 194.053 31.3965 194.912 28.8574C195.771 26.2988 196.982 24.1211 198.545 22.3242C200.127 20.5078 201.992 19.1309 204.141 18.1934C206.309 17.2363 208.701 16.7578 211.318 16.7578C213.955 16.7578 216.357 17.2363 218.525 18.1934C220.693 19.1309 222.559 20.5078 224.121 22.3242C225.684 24.1211 226.885 26.2988 227.725 28.8574C228.584 31.3965 229.014 34.2773 229.014 37.5ZM221.66 39.8438V37.4414C221.66 35.0586 221.426 32.959 220.957 31.1426C220.508 29.3066 219.834 27.7734 218.936 26.543C218.057 25.293 216.973 24.3555 215.684 23.7305C214.395 23.0859 212.939 22.7637 211.318 22.7637C209.697 22.7637 208.252 23.0859 206.982 23.7305C205.713 24.3555 204.629 25.293 203.73 26.543C202.852 27.7734 202.178 29.3066 201.709 31.1426C201.24 32.959 201.006 35.0586 201.006 37.4414V39.8438C201.006 42.2266 201.24 44.3359 201.709 46.1719C202.178 48.0078 202.861 49.5605 203.76 50.8301C204.678 52.0801 205.771 53.0273 207.041 53.6719C208.311 54.2969 209.756 54.6094 211.377 54.6094C213.018 54.6094 214.473 54.2969 215.742 53.6719C217.012 53.0273 218.086 52.0801 218.965 50.8301C219.844 49.5605 220.508 48.0078 220.957 46.1719C221.426 44.3359 221.66 42.2266 221.66 39.8438ZM263.086 54.1699V60H241.67V54.1699H263.086ZM243.721 17.3438V60H236.367V17.3438H243.721Z" fill="#044971"/>
<path d="M149.326 37.5V39.8438C149.326 43.0664 148.906 45.957 148.066 48.5156C147.227 51.0742 146.025 53.252 144.463 55.0488C142.92 56.8457 141.064 58.2227 138.896 59.1797C136.729 60.1172 134.326 60.5859 131.689 60.5859C129.072 60.5859 126.68 60.1172 124.512 59.1797C122.363 58.2227 120.498 56.8457 118.916 55.0488C117.334 53.252 116.104 51.0742 115.225 48.5156C114.365 45.957 113.936 43.0664 113.936 39.8438V37.5C113.936 34.2773 114.365 31.3965 115.225 28.8574C116.084 26.2988 117.295 24.1211 118.857 22.3242C120.439 20.5078 122.305 19.1309 124.453 18.1934C126.621 17.2363 129.014 16.7578 131.631 16.7578C134.268 16.7578 136.67 17.2363 138.838 18.1934C141.006 19.1309 142.871 20.5078 144.434 22.3242C145.996 24.1211 147.197 26.2988 148.037 28.8574C148.896 31.3965 149.326 34.2773 149.326 37.5ZM141.973 39.8438V37.4414C141.973 35.0586 141.738 32.959 141.27 31.1426C140.82 29.3066 140.146 27.7734 139.248 26.543C138.369 25.293 137.285 24.3555 135.996 23.7305C134.707 23.0859 133.252 22.7637 131.631 22.7637C130.01 22.7637 128.564 23.0859 127.295 23.7305C126.025 24.3555 124.941 25.293 124.043 26.543C123.164 27.7734 122.49 29.3066 122.021 31.1426C121.553 32.959 121.318 35.0586 121.318 37.4414V39.8438C121.318 42.2266 121.553 44.3359 122.021 46.1719C122.49 48.0078 123.174 49.5605 124.072 50.8301C124.99 52.0801 126.084 53.0273 127.354 53.6719C128.623 54.2969 130.068 54.6094 131.689 54.6094C133.33 54.6094 134.785 54.2969 136.055 53.6719C137.324 53.0273 138.398 52.0801 139.277 50.8301C140.156 49.5605 140.82 48.0078 141.27 46.1719C141.738 44.3359 141.973 42.2266 141.973 39.8438Z" fill="#FF7313"/>
<path opacity="0.999" fill-rule="evenodd" clip-rule="evenodd" d="M308.973 22.2559C317.88 22.2278 326.788 22.2559 335.694 22.3399C335.868 22.4798 336.043 22.6199 336.216 22.7598C336.39 26.5683 336.355 30.3757 336.112 34.1817C325.743 33.9578 315.375 33.9578 305.006 34.1817C304.937 34.0696 304.867 33.9578 304.797 33.8457C305.946 30.2624 307.094 26.679 308.242 23.0957C308.387 22.7457 308.631 22.4657 308.973 22.2559Z" fill="#221E1F"/>
<path opacity="0.999" fill-rule="evenodd" clip-rule="evenodd" d="M343.836 22.2559C352.674 22.2278 361.512 22.2559 370.349 22.3399C370.732 22.4239 370.975 22.6199 371.08 22.9278C372.25 26.6667 373.468 30.3899 374.733 34.0977C364.233 33.9586 353.725 33.9867 343.21 34.1817C342.966 30.4316 342.931 26.6803 343.105 22.9278C343.249 22.617 343.493 22.3929 343.836 22.2559Z" fill="#221E1F"/>
<path opacity="0.999" fill-rule="evenodd" clip-rule="evenodd" d="M301.248 43.5879C312.661 43.5599 324.073 43.5879 335.486 43.6719C335.784 43.75 336.028 43.8901 336.216 44.0918C336.39 48.5161 336.355 52.9392 336.112 57.3614C322.673 57.166 309.243 57.1381 295.82 57.2774C297.357 53.1766 298.853 49.0613 300.309 44.9317C300.463 44.4029 300.776 43.9549 301.248 43.5879Z" fill="#231E1F"/>
<path opacity="0.998" fill-rule="evenodd" clip-rule="evenodd" d="M343.836 43.5879C355.249 43.5599 366.661 43.5879 378.073 43.6719C378.386 43.8118 378.63 44.0078 378.804 44.2598C380.338 48.5796 381.903 52.8907 383.501 57.1934C370.099 57.1383 356.669 57.1944 343.21 57.3614C342.966 52.9952 342.931 48.628 343.105 44.2598C343.249 43.949 343.493 43.725 343.836 43.5879Z" fill="#231E1F"/>
<path opacity="0.976" fill-rule="evenodd" clip-rule="evenodd" d="M296.864 58.7051C309.738 58.6771 322.612 58.7051 335.486 58.7891C335.868 58.8731 336.112 59.0691 336.216 59.377C336.356 60.8887 336.356 62.4004 336.216 63.9121C336.042 64.0521 335.868 64.1921 335.694 64.3321C322.403 64.4441 309.112 64.4441 295.82 64.3321C295.384 64.0208 295.175 63.6289 295.194 63.1563C295.399 61.8915 295.642 60.6317 295.925 59.377C296.216 59.1133 296.53 58.8892 296.864 58.7051Z" fill="#231E20"/>
<path opacity="0.976" fill-rule="evenodd" clip-rule="evenodd" d="M344.045 58.7051C356.919 58.6771 369.793 58.7051 382.666 58.7891C383.268 59.056 383.581 59.4759 383.606 60.0489C383.923 61.3284 384.062 62.6163 384.023 63.9121C383.849 64.0521 383.675 64.1921 383.501 64.3321C370.21 64.4441 356.919 64.4441 343.627 64.3321C343.453 64.1921 343.279 64.0521 343.105 63.9121C342.966 62.4004 342.966 60.8887 343.105 59.377C343.366 59.0926 343.68 58.8685 344.045 58.7051Z" fill="#231E20"/>
</svg>
