<svg width="36" height="36" viewBox="0 0 36 36" fill="none" xmlns="http://www.w3.org/2000/svg">
<path d="M2.754 11.361H1.104V17.316H5.337V15.8685H2.754V11.361ZM25.62 14.9145H28.311V13.725H25.62V12.771H28.6005V11.3595H23.985V17.3145H28.644V15.9105H25.6125V14.913L25.62 14.9145ZM7.5075 14.9145H10.2V13.725H7.5075V12.771H10.4955V11.3595H5.88V17.3145H10.539V15.9105H7.5075V14.9145ZM33.4785 15.24C34.2165 14.928 34.701 14.3205 34.701 13.41V13.395C34.701 12.8085 34.521 12.345 34.173 12.0045C33.7755 11.5995 33.1455 11.3595 32.2335 11.3595H29.418V17.316H31.068V15.5145H31.7925L32.9925 17.316H34.8975L33.4785 15.24ZM33.0435 13.5105C33.0435 13.9455 32.718 14.2185 32.1615 14.2185H31.0755V12.7935H32.154C32.7045 12.7935 33.0435 13.0335 33.0435 13.503V13.5105ZM19.947 11.361H17.652V17.316H19.917C22.059 17.316 23.3115 16.0425 23.3115 14.3205V14.3055C23.304 12.5835 22.074 11.361 19.947 11.361V11.361ZM21.612 14.349C21.612 15.312 20.952 15.855 19.968 15.855H19.296V12.8295H19.968C20.952 12.8295 21.6105 13.38 21.6105 14.3355L21.612 14.349ZM17.601 0L8.2455 9.357H26.958L17.601 0ZM13.281 11.361L10.761 17.316H12.4845L12.9045 16.26H15.1845L15.618 17.316H17.376L14.8575 11.361H13.281ZM13.389 14.9865L14.055 13.2495L14.7135 14.9865H13.389ZM12.2175 22.8585H12.9405L14.1405 24.6615H16.0455L14.6265 22.584C15.3645 22.2735 15.849 21.6645 15.849 20.754V20.739C15.849 20.154 15.669 19.689 15.321 19.35C14.9235 18.945 14.2935 18.705 13.3815 18.705H10.569V24.654H12.219L12.2175 22.8585ZM12.2175 20.139H13.2945C13.845 20.139 14.1855 20.3775 14.1855 20.847V20.862C14.1855 21.297 13.86 21.5715 13.302 21.5715H12.2175V20.139ZM9.9075 20.8185V20.8035C9.9075 19.4865 8.9385 18.7125 7.4325 18.7125H4.8825V24.6615H6.5325V22.9605H7.35C8.826 22.9605 9.912 22.2225 9.912 20.8185H9.9075ZM8.2575 20.8905C8.2575 21.3615 7.9035 21.6645 7.3185 21.6645H6.5295V20.0955H7.3035C7.8975 20.0955 8.259 20.37 8.259 20.8755L8.2575 20.8905ZM18.4395 18.705H16.785V24.654H18.441L18.4395 18.705ZM22.3905 24.8415C23.433 24.8415 24.402 24.3285 24.996 23.4675L25.032 23.4165L23.694 22.497L23.6565 22.548C23.4722 22.8176 23.2064 23.0212 22.898 23.1289C22.5896 23.2366 22.2549 23.2428 21.9428 23.1465C21.6306 23.0503 21.3575 22.8567 21.1633 22.5941C20.9691 22.3315 20.864 22.0136 20.8635 21.687C20.8639 21.486 20.9039 21.287 20.9813 21.1014C21.0586 20.9158 21.1718 20.7473 21.3143 20.6055C21.4568 20.4637 21.6259 20.3513 21.8118 20.2749C21.9978 20.1984 22.197 20.1594 22.398 20.16C22.905 20.16 23.3745 20.406 23.658 20.826L23.694 20.877L25.032 19.9575L24.996 19.9065C24.7056 19.4839 24.3166 19.1384 23.8626 18.9001C23.4085 18.6617 22.9033 18.5376 22.3905 18.5385C21.5542 18.5405 20.7528 18.8737 20.1616 19.4652C19.5704 20.0566 19.2376 20.8582 19.236 21.6945C19.236 23.424 20.646 24.8415 22.3905 24.8415ZM27.333 23.2575V22.2585H30.192V21.072H27.333V20.1165H30.4875V18.7125H25.698V24.6615H30.525V23.2575H27.333ZM17.6025 36L26.958 26.643H8.2455L17.6025 36Z" fill="#044971"/>
</svg>
