<svg width="36" height="36" viewBox="0 0 36 36" fill="none" xmlns="http://www.w3.org/2000/svg">
<path d="M23.0852 19.1755C23.2976 18.7111 23.8862 18.2809 24.3938 18.2233C24.9014 18.1657 25.364 17.7013 25.4216 17.1937C25.4828 16.6897 25.9112 16.0993 26.3738 15.8851C26.6068 15.7665 26.7965 15.5773 26.9157 15.3446C27.035 15.1119 27.0778 14.8475 27.038 14.5891C26.9336 14.0887 27.1604 13.3957 27.5348 13.0519C27.7204 12.8666 27.8426 12.6272 27.8837 12.3682C27.9247 12.1091 27.8826 11.8437 27.7634 11.6101C27.6399 11.3588 27.5757 11.0827 27.5757 10.8028C27.5757 10.5229 27.6399 10.2467 27.7634 9.99546C27.8829 9.7619 27.9252 9.49642 27.8841 9.23729C27.843 8.97816 27.7207 8.73878 27.5348 8.55366C27.1604 8.20626 26.9354 7.51506 27.038 7.01646C27.0783 6.75748 27.0358 6.49238 26.9165 6.25899C26.7972 6.02561 26.6073 5.83587 26.3738 5.71686C26.1264 5.58491 25.9123 5.3986 25.7473 5.17194C25.5824 4.94528 25.471 4.68417 25.4216 4.40826C25.3805 4.15026 25.259 3.91181 25.0745 3.72692C24.8899 3.54204 24.6517 3.42015 24.3938 3.37866C24.1177 3.33015 23.8564 3.21934 23.6297 3.05465C23.4029 2.88996 23.2167 2.67573 23.0852 2.42826C22.9664 2.19481 22.7765 2.00517 22.5429 1.88674C22.3093 1.76832 22.0441 1.72724 21.7856 1.76946C21.5082 1.80834 21.2255 1.78348 20.9592 1.69677C20.6928 1.61007 20.4497 1.46379 20.2484 1.26906C19.901 0.891056 19.253 0.790256 18.8084 1.04046C18.3638 1.29066 17.6348 1.29066 17.192 1.04046C16.959 0.919348 16.6935 0.875858 16.4341 0.916336C16.1748 0.956814 15.9351 1.07914 15.7502 1.26546C15.549 1.46041 15.3059 1.60684 15.0395 1.69356C14.7731 1.78028 14.4904 1.80501 14.213 1.76586C13.9548 1.72432 13.6901 1.76593 13.4572 1.88468C13.2242 2.00342 13.035 2.19315 12.917 2.42646C12.7028 2.88726 12.1142 3.31746 11.6066 3.37506C11.3482 3.41657 11.1095 3.53865 10.9246 3.72387C10.7397 3.90909 10.618 4.14799 10.577 4.40646C10.5281 4.68237 10.417 4.9435 10.252 5.16996C10.087 5.39642 9.87244 5.58224 9.62476 5.71326C9.39205 5.83287 9.20307 6.02293 9.08477 6.2563C8.96646 6.48968 8.92488 6.75445 8.96596 7.01286C9.06496 7.51146 8.83996 8.20446 8.46556 8.55006C8.09116 8.89566 7.98676 9.54366 8.23696 9.99186C8.48716 10.4347 8.48716 11.1637 8.23696 11.6065C8.11755 11.8403 8.07536 12.1061 8.11643 12.3654C8.1575 12.6248 8.27973 12.8645 8.46556 13.0501C8.84176 13.3921 9.06496 14.0851 8.96596 14.5873C8.92484 14.8452 8.96644 15.1095 9.08479 15.3423C9.20314 15.5751 9.39216 15.7645 9.62476 15.8833C10.0892 16.0975 10.5158 16.6879 10.5752 17.1919C10.6364 17.6995 11.0972 18.1639 11.6048 18.2215C12.1124 18.2791 12.701 18.7111 12.9152 19.1737C13.0341 19.4061 13.2236 19.5949 13.4563 19.7132C13.6891 19.8316 13.9533 19.8733 14.2112 19.8325C14.7116 19.7335 15.4046 19.9567 15.7484 20.3329C15.9338 20.5183 16.1731 20.6403 16.4321 20.6813C16.6911 20.7224 16.9565 20.6804 17.1902 20.5615C17.633 20.3113 18.362 20.3113 18.8066 20.5615C19.2512 20.8117 19.8992 20.7073 20.2466 20.3329C20.594 19.9549 21.2834 19.7335 21.7838 19.8325C22.0422 19.8741 22.3073 19.833 22.541 19.715C22.7747 19.597 22.9652 19.4082 23.0852 19.1755V19.1755ZM18.0002 16.9183C16.377 16.9183 14.8204 16.2735 13.6727 15.1257C12.5249 13.978 11.8802 12.4214 11.8802 10.7983C11.8802 9.17513 12.5249 7.61849 13.6727 6.47076C14.8204 5.32304 16.377 4.67826 18.0002 4.67826C19.6233 4.67826 21.1799 5.32304 22.3277 6.47076C23.4754 7.61849 24.1202 9.17513 24.1202 10.7983C24.1202 12.4214 23.4754 13.978 22.3277 15.1257C21.1799 16.2735 19.6233 16.9183 18.0002 16.9183ZM10.7552 20.5363L8.51776 33.2245L14.1482 32.3893L19.154 35.1001L21.3824 22.4623C19.5831 22.9884 17.686 23.0882 15.8414 22.7539C13.9968 22.4196 12.2554 21.6603 10.7552 20.5363V20.5363ZM25.13 20.6227C24.5678 21.0312 23.9716 21.3907 23.348 21.6973L22.0016 29.3221L28.0658 26.0317L25.13 20.6227V20.6227Z" fill="#044971"/>
</svg>
