<svg width="45" height="46" viewBox="0 0 45 46" fill="none" xmlns="http://www.w3.org/2000/svg">
<g clip-path="url(#clip0_455_76)">
<path d="M22.5 0.443359C10.0741 0.443359 0 10.5174 0 22.9434C0 35.3693 10.0741 45.4434 22.5 45.4434C34.9259 45.4434 45 35.3693 45 22.9434C45 10.5174 34.9259 0.443359 22.5 0.443359Z" fill="#044971"/>
<path d="M22.5 2.69336C33.6656 2.69336 42.75 11.7777 42.75 22.9434C42.75 34.109 33.6656 43.1934 22.5 43.1934C11.3344 43.1934 2.25 34.109 2.25 22.9434C2.25 11.7777 11.3344 2.69336 22.5 2.69336ZM22.5 1.56836C10.6954 1.56836 1.125 11.1387 1.125 22.9434C1.125 34.748 10.6954 44.3184 22.5 44.3184C34.3046 44.3184 43.875 34.748 43.875 22.9434C43.875 11.1387 34.3046 1.56836 22.5 1.56836Z" fill="#4E7AB5"/>
<path d="M34.9291 16.1711C34.9809 16.0013 35.0056 15.8438 34.9989 15.7031C34.982 15.2959 34.7019 15 34.0426 15H31.0974C30.3538 15 30.0106 15.45 29.8104 15.9011C29.8104 15.9011 27.9744 19.68 25.8582 22.1719C25.172 22.893 24.8232 22.875 24.452 22.875C24.2529 22.875 23.75 22.6342 23.75 21.9739V16.1407C23.75 15.36 23.5554 15 22.9265 15H17.6964C17.2385 15 17 15.36 17 15.7211C17 16.4715 18.0103 16.6515 18.125 18.7541V22.83C18.125 23.82 17.9529 24 17.5816 24C16.5804 24 14.6094 20.625 13.2897 16.2015C13.004 15.3307 12.7182 15 11.9746 15H9.00125C8.14287 15 8 15.4208 8 15.8708C8 16.6819 8.675 21.0671 12.3594 26.1094C15.0312 29.7656 18.5514 31.875 21.6676 31.875C23.5554 31.875 23.7489 31.3946 23.7489 30.6442V27.3007C23.75 26.3996 23.9559 26.25 24.5566 26.25C24.9852 26.25 25.8594 26.5312 27.5469 28.5C29.4931 30.7703 29.8464 31.875 30.9624 31.875H33.9076C34.5916 31.875 34.9842 31.5881 35 31.0312C35.0034 30.8895 34.9831 30.7309 34.937 30.5543C34.7188 29.9062 33.7175 28.3223 32.4688 26.8125C31.7769 25.9766 31.094 25.1486 30.7801 24.6986C30.5697 24.405 30.4899 24.198 30.5 24C30.5101 23.7919 30.6181 23.5939 30.7801 23.3171C30.7509 23.3171 34.5579 17.9723 34.9291 16.1711Z" fill="white"/>
</g>
<defs>
<clipPath id="clip0_455_76">
<rect width="45" height="45" fill="white" transform="translate(0 0.443359)"/>
</clipPath>
</defs>
</svg>
