<svg width="33" height="16" viewBox="0 0 33 16" fill="none" xmlns="http://www.w3.org/2000/svg">
<path d="M16.5604 15.6399C16.0405 15.6409 15.5366 15.4651 15.1362 15.1431L1.7846 4.34312C1.33016 3.97648 1.04438 3.44963 0.990129 2.87847C0.935878 2.30731 1.1176 1.73862 1.49531 1.29752C1.87303 0.856408 2.4158 0.579012 3.00422 0.526352C3.59264 0.473692 4.17851 0.65008 4.63295 1.01672L16.5604 10.6935L28.4879 1.36232C28.7155 1.18289 28.9774 1.04891 29.2586 0.968054C29.5397 0.887201 29.8345 0.861079 30.1261 0.891187C30.4177 0.921296 30.7002 1.00704 30.9576 1.1435C31.2149 1.27995 31.4419 1.46443 31.6255 1.68632C31.8293 1.90841 31.9837 2.16896 32.0789 2.45165C32.1741 2.73434 32.2082 3.03307 32.1789 3.32912C32.1497 3.62518 32.0578 3.91218 31.9089 4.17216C31.7601 4.43213 31.5575 4.65946 31.314 4.83992L17.9623 15.2727C17.5505 15.5438 17.0569 15.6731 16.5604 15.6399Z" fill="#232323"/>
</svg>
