<svg width="36" height="36" viewBox="0 0 36 36" fill="none" xmlns="http://www.w3.org/2000/svg">
<g clip-path="url(#clip0_349_66)">
<path d="M21.2712 17.1265L22.8126 15.5851C23.3651 15.8033 23.9553 15.9095 24.5492 15.8978C25.1431 15.886 25.7287 15.7565 26.2721 15.5166C26.3234 15.4941 26.3698 15.4616 26.4085 15.4211C26.4473 15.3807 26.4777 15.3329 26.498 15.2807C26.5183 15.2285 26.5281 15.1727 26.5268 15.1167C26.5256 15.0607 26.5133 15.0055 26.4907 14.9542C26.471 14.9088 26.4434 14.8673 26.4091 14.8316L23.6689 12.0913C23.5902 12.0164 23.527 11.9267 23.4829 11.8273C23.4389 11.7279 23.4148 11.6209 23.4121 11.5122C23.4095 11.4036 23.4282 11.2955 23.4673 11.1941C23.5065 11.0926 23.5652 10.9999 23.6401 10.9212C23.6494 10.9116 23.659 10.9017 23.6689 10.8925L26.4091 8.15221C26.457 8.10288 26.4922 8.04265 26.5116 7.9767C26.5311 7.91076 26.5342 7.84108 26.5207 7.77366C26.5072 7.70625 26.4776 7.64312 26.4342 7.58973C26.3909 7.53633 26.3353 7.49426 26.2721 7.46714C25.4745 7.10327 24.5868 6.98406 23.7214 7.12458C22.856 7.2651 22.0517 7.65904 21.4101 8.25661C20.7686 8.85417 20.3186 9.62853 20.117 10.4818C19.9155 11.3351 19.9715 12.2289 20.2778 13.0504L18.7022 14.626L21.2712 17.1265ZM18.3254 14.9686L16.2017 12.8449L13.667 15.3796L15.7907 17.5033L18.3254 20.038L26.1351 27.8477C26.2432 27.9567 26.3902 28.0184 26.5437 28.019C26.6973 28.0196 26.8448 27.9593 26.9538 27.8512L26.9572 27.8477L28.7041 26.1008C28.8131 26.0001 28.8776 25.8602 28.8835 25.7118C28.8893 25.5635 28.836 25.4189 28.7353 25.3099C28.7254 25.299 28.715 25.2886 28.7041 25.2788L20.8601 17.5376L18.3254 14.9686Z" fill="#044971"/>
<path d="M27.5738 9.52231L25.2789 11.8173C25.1963 11.9055 25.1504 12.0218 25.1504 12.1427C25.1504 12.2635 25.1963 12.3798 25.2789 12.4681L27.0258 14.215C27.0677 14.258 27.1178 14.2923 27.173 14.316C27.2283 14.3396 27.2876 14.3522 27.3477 14.3529C27.4078 14.3536 27.4675 14.3424 27.5232 14.3201C27.579 14.2977 27.6298 14.2645 27.6728 14.2225C27.6864 14.2095 27.6992 14.1955 27.7108 14.1807C28.2092 13.551 28.5268 12.7974 28.6293 12.0008C28.7319 11.2043 28.6157 10.3948 28.2931 9.65932C28.2621 9.59534 28.2165 9.53951 28.16 9.49628C28.1035 9.45304 28.0377 9.42359 27.9679 9.41029C27.898 9.39698 27.826 9.40018 27.7576 9.41962C27.6892 9.43907 27.6262 9.47423 27.5738 9.52231V9.52231ZM10.0705 20.3463L12.8107 23.0865C12.8895 23.1615 12.9526 23.2512 12.9967 23.3505C13.0408 23.4499 13.0648 23.557 13.0675 23.6656C13.0701 23.7743 13.0514 23.8824 13.0123 23.9838C12.9732 24.0852 12.9145 24.1779 12.8395 24.2566C12.8302 24.2665 12.8206 24.2761 12.8107 24.2854L10.0705 27.0256C10.0226 27.075 9.98742 27.1352 9.96798 27.2011C9.94855 27.2671 9.94544 27.3368 9.95892 27.4042C9.9724 27.4716 10.0021 27.5347 10.0454 27.5881C10.0887 27.6415 10.1443 27.6836 10.2075 27.7107C11.0018 28.0744 11.886 28.1948 12.7486 28.0567C13.6112 27.9186 14.4137 27.5283 15.0548 26.9348C15.6959 26.3413 16.1469 25.5714 16.351 24.7219C16.5551 23.8725 16.5032 22.9817 16.2018 22.1617L17.9144 20.449L15.3797 17.9143L13.7013 19.5927C12.5736 19.1521 11.3171 19.1767 10.2075 19.6612C10.1562 19.6838 10.1098 19.7162 10.0711 19.7567C10.0323 19.7972 10.002 19.8449 9.98166 19.8971C9.96136 19.9494 9.95156 20.0051 9.95281 20.0611C9.95407 20.1172 9.96635 20.1724 9.98896 20.2237C10.0086 20.269 10.0362 20.3106 10.0705 20.3463V20.3463Z" fill="#044971"/>
<path d="M8.76872 20.9972C8.27031 21.627 7.95278 22.3806 7.8502 23.1771C7.74761 23.9737 7.86384 24.7831 8.18642 25.5186C8.21549 25.5891 8.26181 25.6511 8.32111 25.699C8.3804 25.747 8.45078 25.7792 8.52579 25.7929C8.6008 25.8065 8.67803 25.8011 8.7504 25.7771C8.82277 25.7531 8.88796 25.7114 8.93998 25.6556L11.2349 23.3607C11.3175 23.2724 11.3634 23.1561 11.3634 23.0353C11.3634 22.9144 11.3175 22.7981 11.2349 22.7099L9.48803 20.963C9.4413 20.9178 9.38614 20.8824 9.32569 20.8586C9.26525 20.8348 9.20071 20.8231 9.13576 20.8242C9.0708 20.8254 9.00671 20.8393 8.94715 20.8652C8.88758 20.8911 8.8337 20.9285 8.78859 20.9753C8.78179 20.9824 8.77516 20.9897 8.76872 20.9972V20.9972ZM9.35102 13.3588H9.52229L9.35102 13.1875V13.3588Z" fill="#044971"/>
<path d="M10.9266 15.7564L11.4404 15.2426L9.55652 13.3587H9.38525C9.37992 13.2995 9.39182 13.24 9.41951 13.1874L9.04272 12.8106L8.52893 13.3244L8.22065 13.0504C8.08886 12.9188 7.91023 12.8449 7.72398 12.8449C7.53773 12.8449 7.3591 12.9188 7.22731 13.0504L7.0903 13.1874C6.95869 13.3192 6.88477 13.4978 6.88477 13.6841C6.88477 13.8703 6.95869 14.049 7.0903 14.1808L10.0703 17.1608C10.2021 17.2924 10.3807 17.3663 10.567 17.3663C10.7532 17.3663 10.9319 17.2924 11.0637 17.1608L11.2007 17.0238C11.3323 16.892 11.4062 16.7133 11.4062 16.5271C11.4062 16.3408 11.3323 16.1622 11.2007 16.0304L10.9266 15.7564ZM13.8382 8.11796L16.2359 10.5157C19.0104 8.66601 20.5518 10.2074 18.4281 8.08371C16.9552 6.61082 15.1055 7.29588 13.8382 8.11796V8.11796ZM16.0646 11.1665L15.7906 10.8925L13.3586 8.42624L13.0846 8.15221C13.0246 8.08923 12.9529 8.03868 12.8734 8.00344C12.7939 7.96821 12.7082 7.94897 12.6213 7.94684C12.5343 7.94471 12.4478 7.95972 12.3667 7.99102C12.2856 8.02232 12.2114 8.0693 12.1484 8.12926C12.1406 8.13674 12.133 8.14439 12.1255 8.15221L9.14548 11.1322C9.01387 11.264 8.93995 11.4427 8.93995 11.6289C8.93995 11.8152 9.01387 11.9938 9.14548 12.1256L9.351 12.3311L9.38525 12.3653L9.62502 12.6051C10.1731 11.783 11.2349 10.961 10.4128 10.1731C11.2349 10.9952 10.1731 11.8173 9.62502 12.6051L10.3443 13.3244L11.8515 14.8316L12.1255 15.1056C12.1879 15.1699 12.2624 15.2211 12.3447 15.2564C12.427 15.2917 12.5155 15.3103 12.605 15.3111H12.7421C12.8425 15.2866 12.9362 15.2397 13.0161 15.1741C13.0503 15.1398 13.0846 15.1398 13.0846 15.1056L13.2216 14.9686L15.7563 12.4338L15.9618 12.2283L16.0646 12.1256C16.1069 12.0865 16.1417 12.0401 16.1674 11.9886C16.252 11.8621 16.2882 11.7094 16.2694 11.5583C16.2505 11.4073 16.1778 11.2682 16.0646 11.1665V11.1665Z" fill="#044971"/>
<path d="M17.9829 0.102717C17.8941 0.0993565 17.806 0.119815 17.7277 0.161973C17.6494 0.20413 17.5838 0.266454 17.5377 0.342488L16.6128 1.84962L16.1675 1.88388L14.9687 0.58226C14.872 0.483543 14.7401 0.427228 14.602 0.425687C14.4638 0.424146 14.3307 0.477503 14.2319 0.574039C14.1801 0.625016 14.1394 0.686117 14.1124 0.753526L13.4958 2.39767L13.0848 2.53469L11.6461 1.50709C11.5715 1.4643 11.488 1.43924 11.4021 1.43384C11.3162 1.42843 11.2302 1.44284 11.1507 1.47594C11.0713 1.50904 11.0005 1.55995 10.9439 1.62474C10.8872 1.68953 10.8462 1.76647 10.8241 1.84962L10.55 3.59653L10.139 3.7678L8.5291 3.04848C8.45011 3.01659 8.36452 3.00446 8.27978 3.01314C8.19504 3.02183 8.11369 3.05106 8.04281 3.09832C7.97193 3.14557 7.91366 3.20941 7.87305 3.28429C7.83244 3.35918 7.81072 3.44284 7.80978 3.52803L7.87829 5.30919L7.53576 5.58321L5.8231 5.17217C5.73883 5.15725 5.6522 5.16288 5.57057 5.18859C5.48894 5.21429 5.41472 5.25931 5.3542 5.31983C5.29369 5.38035 5.24867 5.45457 5.22296 5.5362C5.19725 5.61783 5.19162 5.70446 5.20655 5.78873L5.61758 7.50139L5.34356 7.84392L3.5624 7.77541C3.4226 7.77918 3.29001 7.83823 3.19369 7.93962C3.09737 8.04101 3.0452 8.17646 3.0486 8.31627C3.04951 8.3773 3.0611 8.4377 3.08286 8.49472L3.80217 10.1046L3.59665 10.4814L1.84974 10.7554C1.7791 10.7729 1.71259 10.8042 1.65403 10.8474C1.59547 10.8906 1.54599 10.945 1.50843 11.0073C1.47086 11.0697 1.44595 11.1388 1.4351 11.2108C1.42425 11.2827 1.42769 11.3561 1.44521 11.4268C1.45825 11.4798 1.47915 11.5306 1.50721 11.5775L2.53481 13.0161L2.39779 13.4957L0.753645 14.1122C0.673634 14.145 0.602969 14.197 0.547949 14.2637C0.492929 14.3304 0.455263 14.4097 0.438307 14.4945C0.421352 14.5792 0.425634 14.6669 0.450771 14.7496C0.475909 14.8323 0.521122 14.9075 0.582379 14.9686L1.884 16.1674L1.84974 16.6127L0.342608 17.5375C0.284126 17.5787 0.234315 17.6309 0.19602 17.6912C0.157724 17.7516 0.131694 17.8189 0.119416 17.8893C0.107138 17.9598 0.108853 18.0319 0.124463 18.1017C0.140072 18.1714 0.169271 18.2374 0.210391 18.2959C0.246421 18.3473 0.291167 18.3921 0.342608 18.4281L1.84974 19.353L1.884 19.7982L0.582379 20.9971C0.483662 21.0938 0.427348 21.2256 0.425806 21.3638C0.424265 21.5019 0.477623 21.6351 0.574159 21.7339C0.625136 21.7856 0.686236 21.8263 0.753645 21.8534L2.39779 22.5042L2.53481 22.9153L1.50721 24.3539C1.46989 24.4164 1.44524 24.4856 1.43468 24.5577C1.42412 24.6297 1.42786 24.7031 1.44567 24.7737C1.46348 24.8443 1.49502 24.9106 1.5385 24.969C1.58197 25.0274 1.63652 25.0767 1.69903 25.114C1.7459 25.142 1.7967 25.1629 1.84974 25.176L3.59665 25.45L3.80217 25.8268L3.08286 27.4367C3.05096 27.5157 3.03883 27.6013 3.04751 27.686C3.0562 27.7707 3.08544 27.8521 3.13269 27.923C3.17994 27.9938 3.24378 28.0521 3.31867 28.0927C3.39355 28.1333 3.47722 28.1551 3.5624 28.156L5.34356 28.0875L5.61758 28.43L5.20655 30.1427C5.19162 30.227 5.19725 30.3136 5.22296 30.3952C5.24867 30.4768 5.29369 30.5511 5.3542 30.6116C5.41472 30.6721 5.48894 30.7171 5.57057 30.7428C5.6522 30.7685 5.73883 30.7742 5.8231 30.7592L7.53576 30.3482L7.87829 30.6222L7.80978 32.4034C7.81355 32.5432 7.8726 32.6758 7.97399 32.7721C8.07538 32.8684 8.21083 32.9206 8.35064 32.9172C8.41167 32.9163 8.47207 32.9047 8.5291 32.8829L10.139 32.1636L10.5158 32.3691L10.7898 34.116C10.8073 34.1867 10.8386 34.2532 10.8818 34.3118C10.925 34.3703 10.9794 34.4198 11.0417 34.4574C11.104 34.4949 11.1732 34.5198 11.2451 34.5307C11.3171 34.5415 11.3905 34.5381 11.4612 34.5206C11.5142 34.5075 11.565 34.4866 11.6119 34.4586L13.0505 33.431L13.4615 33.568L14.0781 35.2121C14.1109 35.2922 14.1629 35.3628 14.2296 35.4178C14.2963 35.4729 14.3755 35.5105 14.4603 35.5275C14.5451 35.5444 14.6328 35.5401 14.7155 35.515C14.7982 35.4899 14.8734 35.4447 14.9344 35.3834L16.1333 34.0818L16.5786 34.116L17.5034 35.6232C17.5445 35.6817 17.5967 35.7315 17.6571 35.7698C17.7175 35.8081 17.7848 35.8341 17.8552 35.8464C17.9256 35.8586 17.9978 35.8569 18.0675 35.8413C18.1373 35.8257 18.2033 35.7965 18.2618 35.7554C18.3132 35.7194 18.358 35.6746 18.394 35.6232L19.3188 34.116L19.7641 34.0818L20.963 35.3834C21.0596 35.4821 21.1915 35.5384 21.3297 35.54C21.4678 35.5415 21.6009 35.4882 21.6998 35.3916C21.7515 35.3406 21.7922 35.2795 21.8193 35.2121L22.4359 33.568L22.8469 33.431L24.2855 34.4586C24.3602 34.5014 24.4437 34.5264 24.5296 34.5318C24.6155 34.5372 24.7015 34.5228 24.7809 34.4897C24.8603 34.4566 24.9311 34.4057 24.9878 34.3409C25.0444 34.2761 25.0854 34.1992 25.1076 34.116L25.3816 32.3691L25.7584 32.1636L27.3683 32.8829C27.4473 32.9148 27.5329 32.927 27.6176 32.9183C27.7024 32.9096 27.7837 32.8803 27.8546 32.8331C27.9255 32.7858 27.9837 32.722 28.0243 32.6471C28.065 32.5722 28.0867 32.4886 28.0876 32.4034L28.0191 30.6222L28.3616 30.3482L30.0743 30.7592C30.1586 30.7742 30.2452 30.7685 30.3268 30.7428C30.4085 30.7171 30.4827 30.6721 30.5432 30.6116C30.6037 30.5511 30.6487 30.4768 30.6744 30.3952C30.7001 30.3136 30.7058 30.227 30.6908 30.1427L30.2798 28.43L30.5538 28.0875L32.335 28.156C32.4748 28.1522 32.6074 28.0932 32.7037 27.9918C32.8 27.8904 32.8522 27.7549 32.8488 27.6151C32.8479 27.5541 32.8363 27.4937 32.8145 27.4367L32.198 25.8268L32.4035 25.45L34.1504 25.176C34.2211 25.1585 34.2876 25.1272 34.3461 25.084C34.4047 25.0408 34.4542 24.9864 34.4917 24.9241C34.5293 24.8617 34.5542 24.7926 34.5651 24.7206C34.5759 24.6487 34.5725 24.5753 34.5549 24.5046C34.5419 24.4516 34.521 24.4008 34.4929 24.3539L33.4653 22.9153L33.6024 22.5042L35.2465 21.8877C35.3265 21.8549 35.3972 21.8029 35.4522 21.7362C35.5072 21.6695 35.5449 21.5902 35.5618 21.5055C35.5788 21.4207 35.5745 21.333 35.5494 21.2503C35.5242 21.1676 35.479 21.0924 35.4178 21.0314L34.1162 19.8325L34.1504 19.3872L35.6575 18.4624C35.716 18.4213 35.7658 18.369 35.8041 18.3087C35.8424 18.2483 35.8685 18.181 35.8807 18.1106C35.893 18.0402 35.8913 17.968 35.8757 17.8982C35.8601 17.8285 35.8309 17.7625 35.7898 17.704C35.7537 17.6526 35.709 17.6078 35.6575 17.5718L34.1504 16.647L34.1162 16.2017L35.4178 15.0028C35.5165 14.9062 35.5728 14.7743 35.5743 14.6361C35.5759 14.498 35.5225 14.3649 35.426 14.266C35.375 14.2143 35.3139 14.1736 35.2465 14.1465L33.6024 13.5299L33.4653 13.1189L34.4929 11.6803C34.5357 11.6056 34.5608 11.5221 34.5662 11.4362C34.5716 11.3503 34.5572 11.2643 34.5241 11.1849C34.491 11.1054 34.4401 11.0347 34.3753 10.978C34.3105 10.9214 34.2336 10.8804 34.1504 10.8582L32.4035 10.5842L32.198 10.1389L32.9173 8.52898C32.9492 8.44999 32.9613 8.3644 32.9526 8.27966C32.944 8.19492 32.9147 8.11358 32.8675 8.0427C32.8202 7.97182 32.7564 7.91354 32.6815 7.87293C32.6066 7.83232 32.5229 7.8106 32.4378 7.80966L30.6908 7.87817L30.4168 7.53564L30.8279 5.82298C30.8428 5.73871 30.8371 5.65208 30.8114 5.57045C30.7857 5.48882 30.7407 5.4146 30.6802 5.35408C30.6197 5.29357 30.5455 5.24855 30.4638 5.22284C30.3822 5.19714 30.2956 5.1915 30.2113 5.20643L28.4986 5.61746L28.1561 5.34344L28.2246 3.56228C28.2209 3.42248 28.1618 3.28989 28.0604 3.19357C27.959 3.09725 27.8236 3.04508 27.6838 3.04848C27.6227 3.04939 27.5623 3.06098 27.5053 3.08274L25.8612 3.7678L25.4844 3.56228L25.2104 1.81537C25.1928 1.74473 25.1616 1.67822 25.1184 1.61966C25.0751 1.5611 25.0208 1.51162 24.9585 1.47405C24.8961 1.43649 24.827 1.41157 24.755 1.40073C24.683 1.38988 24.6096 1.39332 24.539 1.41084C24.4859 1.42388 24.4351 1.44478 24.3883 1.47284L22.9496 2.50043L22.5044 2.39767L21.8878 0.753526C21.855 0.673514 21.803 0.60285 21.7363 0.54783C21.6696 0.49281 21.5904 0.455144 21.5056 0.438188C21.4208 0.421232 21.3331 0.425514 21.2504 0.450652C21.1677 0.47579 21.0925 0.521002 21.0315 0.58226L19.8326 1.88388L19.3873 1.84962L18.4625 0.342488C18.412 0.262627 18.3406 0.198081 18.2561 0.155824C18.1716 0.113566 18.0771 0.0952026 17.9829 0.102717V0.102717ZM17.9829 3.254C18.2582 3.25689 18.5211 3.36895 18.7138 3.56556C18.9064 3.76216 19.0132 4.02722 19.0105 4.30249V4.31585C19.0105 5.72022 16.8869 5.72022 16.8869 4.31585C16.8794 4.04196 16.9809 3.77631 17.1692 3.57722C17.3574 3.37814 17.6169 3.26189 17.8908 3.254C17.9216 3.2516 17.9525 3.25229 17.9829 3.254V3.254ZM20.4149 5.00091C22.2845 5.3575 24.0547 6.11467 25.6038 7.22036C27.153 8.32605 28.4444 9.75406 29.3892 11.4062L28.1219 14.2492C28.0201 14.4812 28.0132 14.7439 28.1029 14.9808C28.1926 15.2178 28.3715 15.4101 28.6014 15.5166L31.0334 16.5785C31.1019 17.332 31.0334 18.8392 31.0334 18.8392C30.8399 21.303 29.962 23.6639 28.4986 25.6555C28.1349 26.1434 27.7461 26.6121 27.334 27.0599L25.0733 26.5804C24.8193 26.5292 24.5553 26.5794 24.3377 26.7202C24.1201 26.861 23.9662 27.0812 23.9087 27.3339L23.3607 29.8344C21.642 30.6108 19.7758 31.0067 17.8898 30.9949C16.0039 30.983 14.1428 30.5638 12.4339 29.7659L11.8859 27.2654C11.8301 27.0118 11.6765 26.7904 11.4585 26.6493C11.2404 26.5082 10.9755 26.4588 10.7213 26.5119L8.5291 26.9914C8.11806 26.5804 7.39874 25.6555 7.39874 25.6555C6.46508 24.3992 5.76861 22.9831 5.34356 21.4766C5.34356 21.4766 5.20655 20.9629 5.13804 20.7231C5.10379 20.6203 5.10379 20.5176 5.06953 20.4148C5.00712 20.1208 4.96137 19.8234 4.93252 19.5242C4.89827 19.3872 4.89827 19.2502 4.86402 19.0789C4.82976 18.8392 4.79551 18.0171 4.79551 17.8801V17.4348C4.79551 17.2635 4.82976 17.0923 4.82976 16.921C4.82976 16.784 4.86402 16.6127 4.86402 16.4757L7.15897 15.4481C7.27503 15.3966 7.37979 15.3227 7.46729 15.2306C7.55478 15.1386 7.62329 15.0302 7.6689 14.9117C7.71451 14.7932 7.73633 14.6668 7.73312 14.5399C7.7299 14.413 7.70171 14.2879 7.65016 14.1718C7.64642 14.1633 7.64254 14.1549 7.63852 14.1465L6.47391 11.509C6.94224 10.6603 7.5053 9.86737 8.15231 9.14553C8.15231 9.14553 8.46059 8.803 8.56335 8.70024C8.76887 8.49472 8.97439 8.28921 9.21416 8.08369L9.28266 8.01518C11.0319 6.47802 13.1608 5.43722 15.4482 5.00091L17.0924 6.71356C17.27 6.899 17.5137 7.00667 17.7704 7.01309C18.0271 7.0195 18.2759 6.92415 18.4625 6.74782L20.4149 5.00091ZM5.27505 12.8791C5.47023 12.8834 5.66023 12.9427 5.8231 13.0504C6.01669 13.1776 6.16345 13.3646 6.24108 13.5829C6.31871 13.8012 6.32297 14.0388 6.2532 14.2598C6.18344 14.4807 6.04347 14.6728 5.85455 14.8069C5.66564 14.941 5.43812 15.0098 5.20655 15.0028C4.93091 14.9939 4.66954 14.8781 4.47776 14.6799C4.28597 14.4818 4.17881 14.2168 4.17895 13.941C4.18061 13.7998 4.21005 13.6604 4.26561 13.5306C4.32116 13.4009 4.40174 13.2833 4.50273 13.1847C4.60373 13.0861 4.72316 13.0084 4.85421 12.9559C4.98526 12.9035 5.12535 12.8774 5.26649 12.8791H5.27505ZM30.6566 12.9134C30.9319 12.9163 31.1947 13.0283 31.3874 13.2249C31.5801 13.4215 31.6868 13.6866 31.6842 13.9619V13.9752C31.6842 15.3796 29.5605 15.3796 29.5605 13.9752C29.5694 13.6905 29.6888 13.4204 29.8934 13.2222C30.098 13.024 30.3717 12.9132 30.6566 12.9134V12.9134ZM10.0705 27.882C10.3458 27.8849 10.6086 27.9969 10.8013 28.1935C10.994 28.3901 11.1007 28.6552 11.0981 28.9305V28.9438C11.0981 30.3482 8.97439 30.3482 8.97439 28.9438C8.98329 28.6591 9.10269 28.389 9.30729 28.1908C9.51189 27.9926 9.78562 27.8818 10.0705 27.882V27.882ZM25.8612 27.9162C26.1364 27.9191 26.3993 28.0312 26.592 28.2278C26.7847 28.4244 26.8914 28.6894 26.8888 28.9647V28.9781C26.8888 30.3825 24.7651 30.3825 24.7651 28.9781C24.7667 28.8369 24.7962 28.6975 24.8517 28.5677C24.9073 28.438 24.9878 28.3204 25.0888 28.2218C25.1898 28.1232 25.3093 28.0455 25.4403 27.9931C25.5714 27.9406 25.7115 27.9145 25.8526 27.9162H25.8612Z" fill="#044971"/>
</g>
<defs>
<clipPath id="clip0_349_66">
<rect width="36" height="36" fill="white"/>
</clipPath>
</defs>
</svg>
